<?xml version="1.0" standalone="no"?>
<!DOCTYPE svg PUBLIC "-//W3C//DTD SVG 20010904//EN"
 "http://www.w3.org/TR/2001/REC-SVG-20010904/DTD/svg10.dtd">
<svg version="1.0" xmlns="http://www.w3.org/2000/svg"
 width="261.000000pt" height="261.000000pt" viewBox="0 0 261.000000 261.000000"
 preserveAspectRatio="xMidYMid meet">
<metadata>
Created by potrace 1.11, written by Peter Selinger 2001-2013
</metadata>
<g transform="translate(0.000000,261.000000) scale(0.100000,-0.100000)"
fill="#000000" stroke="none">
<path d="M1308 2525 c-2 -1 -43 -5 -93 -8 -342 -24 -667 -264 -792 -587 -46
-118 -62 -199 -68 -340 -3 -62 -14 -126 -40 -217 -20 -70 -38 -135 -40 -143
-6 -24 -75 -253 -85 -280 -5 -14 -23 -72 -40 -130 -18 -58 -47 -152 -65 -210
-18 -58 -36 -114 -39 -126 -12 -40 139 -176 266 -240 90 -45 216 -81 311 -88
71 -5 82 -9 119 -40 51 -44 114 -56 176 -34 37 14 47 14 84 1 22 -8 64 -15 92
-17 50 -3 164 16 193 32 8 5 36 1 68 -10 72 -24 146 -27 223 -10 47 10 70 11
94 3 66 -23 146 -5 198 44 20 18 41 24 105 30 44 4 82 8 85 10 3 2 22 6 42 9
138 22 283 102 417 233 l54 52 -13 43 c-7 24 -15 48 -16 53 -1 6 -35 114 -74
240 -40 127 -74 237 -75 245 -2 8 -33 119 -69 247 -48 171 -65 247 -65 290 4
294 -139 574 -386 762 -120 91 -301 162 -448 177 -34 3 -74 7 -89 9 -15 1 -29
1 -30 0z m-1071 -1887 c-3 -8 -6 -5 -6 6 -1 11 2 17 5 13 3 -3 4 -12 1 -19z
m2150 -20 c-3 -8 -6 -5 -6 6 -1 11 2 17 5 13 3 -3 4 -12 1 -19z m-2190 -100
c-3 -8 -6 -5 -6 6 -1 11 2 17 5 13 3 -3 4 -12 1 -19z m2224 -31 c-10 -9 -11
-8 -5 6 3 10 9 15 12 12 3 -3 0 -11 -7 -18z m-2166 -47 c10 -11 16 -20 13 -20
-3 0 -13 9 -23 20 -10 11 -16 20 -13 20 3 0 13 -9 23 -20z m46 -37 c13 -16 12
-17 -3 -4 -17 13 -22 21 -14 21 2 0 10 -8 17 -17z m2029 13 c0 -2 -8 -10 -17
-17 -16 -13 -17 -12 -4 4 13 16 21 21 21 13z m-1753 -122 c-3 -3 -12 -4 -19
-1 -8 3 -5 6 6 6 11 1 17 -2 13 -5z m210 -10 c-3 -3 -12 -4 -19 -1 -8 3 -5 6
6 6 11 1 17 -2 13 -5z"/>
</g>
</svg>
