<?xml version="1.0" encoding="utf-8"?>
<!-- Generator: Adobe Illustrator 24.1.0, SVG Export Plug-In . SVG Version: 6.00 Build 0)  -->
<svg version="1.1" xmlns="http://www.w3.org/2000/svg" xmlns:xlink="http://www.w3.org/1999/xlink" x="0px" y="0px"
	 viewBox="0 0 1653.2 1557.1" style="enable-background:new 0 0 1653.2 1557.1;" xml:space="preserve">
<style type="text/css">
	.st0{fill:#3B0E20;}
	.st1{fill:#D2D2D2;}
	.st2{fill:#3A1321;}
	.st3{fill:#DCDCDC;}
	.st4{fill:#DCDCDC;stroke:#DCDCDC;stroke-width:12;stroke-miterlimit:10;}
	.st5{fill:#EAA5C2;}
	.st6{fill:#FEC8D8;}
	.st7{fill:#FFFFFF;}
	.st8{fill:#D5879F;}
	.st9{fill:#B77287;}
	.st10{opacity:0.81;fill:#F6C5DB;}
	.st11{fill:#381823;}
	.st12{opacity:0.36;fill:#B77287;}
	.st13{fill:#A44C65;}
	.st14{fill:#7E334A;}
	.st15{fill:#C16483;}
	.st16{opacity:0.25;fill:#D5879F;}
	.st17{display:none;fill:#DD1919;}
	.st18{display:none;fill:#341E27;}
	.st19{fill:#1D1D1D;}
	.st20{opacity:0.48;}
	.st21{fill:none;stroke:#E8E8E8;stroke-width:3;}
	.st22{fill:none;stroke:#262728;stroke-width:25;stroke-miterlimit:10;}
	.st23{fill:#353535;stroke:#2D2D2D;stroke-width:8;stroke-linejoin:round;stroke-miterlimit:10;}
	.st24{fill:url(#SVGID_1_);stroke:#2D2D2D;stroke-width:13;stroke-linejoin:round;stroke-miterlimit:10;}
	.st25{fill:url(#SVGID_2_);stroke:#2D2D2D;stroke-width:6;stroke-miterlimit:10;}
	.st26{opacity:0.46;fill:#E5E5E5;}
	.st27{fill:none;stroke:url(#SVGID_3_);stroke-width:13;stroke-linejoin:round;stroke-miterlimit:10;}
	.st28{fill:url(#SVGID_4_);}
	.st29{fill:url(#SVGID_5_);}
</style>
<g id="Capa_7">
	<rect class="st0" width="1653.2" height="1557.1"/>
</g>
<g id="Contorno">
	<g>
		<path class="st1" d="M840,271.3C840,271.3,840,271.3,840,271.3c0.5,0,0.9,0,1.3,0l0.8,0c2.1,0,4.2,0,6.4,0.1l0.3,0
			c84.6,2.3,164.2,36.6,224.3,96.4c62.9,62.6,97.5,145.9,97.5,234.6c0,9.2-0.4,18.5-1.2,27.7l58.8,211.3l61.3,197.4l-5.2,5.3
			c-27.3,28-59.7,49.4-96.1,63.4c-29,11.2-60.6,17.8-93.9,19.6c-6.6,0.4-12.9,0.5-19,0.5c-15.6,0-29.7-1-41.6-2.4
			c1.1,2.9,1.7,6,1.7,9.3c0,14.3-11.6,25.8-25.8,25.8c-13.8,0-25.1-10.9-25.8-24.6c-26.5,20.2-52.6,26.6-74.9,26.6
			c-9.5,0-18.2-1.1-26-2.8c-22.2-4.8-39.8-14.7-49.4-21.1c-9.4,6.4-26.2,16.3-47.8,21.1c-7.6,1.7-16.2,2.9-25.5,2.9c0,0,0,0,0,0
			c-23.5,0-51.6-7.4-80-31.7c0.2,1.3,0.3,2.6,0.3,3.9c0,14.3-11.6,25.8-25.8,25.8c-14.3,0-25.8-11.6-25.8-25.8c0-3,0.5-5.9,1.5-8.6
			c-10.4,1-22.3,1.7-35.2,1.7c-6.1,0-12.5-0.2-19-0.5c-33.3-1.8-64.9-8.4-93.9-19.6c-36.4-14-68.7-35.4-96.1-63.4l-5.2-5.3
			l77.1-248.2l44.6-160.5c-0.8-9.2-1.2-18.5-1.2-27.7c0-88.7,34.6-172,97.5-234.6c60-59.8,139.7-94,224.3-96.4l0.2,0
			c2.2-0.1,4.3-0.1,6.4-0.1l0.8,0c0.4,0,0.8,0,1.2,0c0.2,0,0.4,0,0.7,0l0.4,0l0.4,0c0.2,0,0.4,0,0.6,0c0,0,0,0,0.1,0
			c0.4,0,0.8,0,1.2,0l0.7,0l0.7,0c0.4,0,0.8,0,1.2,0c0.2,0,0.4,0,0.7,0l0.4,0l0.4,0C839.6,271.3,839.8,271.3,840,271.3
			 M1072.2,856.9C1072.2,856.9,1072.2,856.9,1072.2,856.9C1072.2,856.9,1072.2,856.9,1072.2,856.9
			C1072.2,856.9,1072.2,856.9,1072.2,856.9L1072.2,856.9C1072.2,856.9,1072.2,856.9,1072.2,856.9 M840,221.3c-0.3,0-0.7,0-1,0
			c-0.3,0-0.6,0-1,0l-0.1,0l-0.1,0c-0.6,0-1.2,0-1.8,0c-0.6,0-1.2,0-1.8,0l-0.1,0H834h-0.1c-0.3,0-0.7,0-1,0c-0.3,0-0.6,0-1,0
			l-0.1,0l-0.1,0c-0.7,0-1.4,0-2,0l-0.5,0c-2.5,0-4.9,0.1-7.1,0.1l-0.2,0l-0.2,0l0,0c-97.3,2.7-189,42.1-258.1,110.9
			c-72.4,72-112.2,168-112.2,270.1c0,7.5,0.2,15.1,0.7,22.6L410,776.5l-76.9,247.5l-8.8,28.4l20.8,21.3l5.2,5.3
			c32.4,33.2,70.7,58.5,113.8,75.1c33.9,13.1,70.6,20.8,109.2,22.9c6.3,0.3,12.6,0.5,19,0.6c13.7,19.7,36.5,32.7,62.3,32.7
			c14.8,0,28.7-4.3,40.4-11.7c3.3,1.4,6.6,2.8,10,4c17.8,6.4,36.4,9.7,55.2,9.7c12.1,0,24.4-1.4,36.4-4.1c14-3.1,26.5-7.7,37.2-12.7
			c11.1,5,24,9.7,38.5,12.8c12.1,2.6,24.5,4,36.6,4c17.5,0,34.7-2.7,51.3-8.1c3.8-1.2,7.5-2.6,11.2-4.1
			c11.2,6.5,24.2,10.2,38.1,10.2c25.8,0,48.6-12.9,62.3-32.7c1.1,0,2.2,0,3.4,0c7.3,0,14.6-0.2,21.7-0.6
			c38.6-2.1,75.3-9.8,109.2-22.9c43.2-16.6,81.5-41.9,113.8-75.1l5.2-5.3l20.8-21.3l-8.8-28.4l-61.1-196.7l-56.3-202.3
			c0.4-7.5,0.7-15.1,0.7-22.6c0-102.1-39.8-198-112.2-270.1c-69.1-68.8-160.7-108.2-258-110.9l-0.1,0l-0.2,0l-0.2,0
			c-2.2-0.1-4.5-0.1-7-0.1l-0.5,0c-0.7,0-1.4,0-2,0L840,221.3L840,221.3z"/>
	</g>
	<g>
		<path class="st2" d="M1425.6,1161.1h-31.3l0.1-0.7h-81.2h-6.7c-1.4,0-2.8,0-4.1,0.1c-2.6-3.4-5.6-6.7-8.8-9.7
			c-15.1-14.3-35-22.1-56-22.1c-14.8,0-29,3.8-41.4,11c-8.8-1.9-18.1-2.9-27.9-2.9h-48.9h-54.9l-4,20l-3.4-2.1
			c-10.8-6.8-23.2-11.9-36.6-15c-5.2-1.2-10.6-2.2-16.1-2.8l1.2-6h-81.7h-25h-54.8l-0.8,4.1c-9.9-4.1-20.5-6.3-31.5-6.3
			c-12.7,0-25,2.8-36,8.2h-10.4c-6-0.8-12.1-1.1-18.3-1.1c-6.2,0-12.2,0.4-18.1,1.1h-9.5h-81.6h-25.5h-54.9l-4.9,24.3h-25.4h-25H490
			c-4.3-0.5-8.8-0.7-13.3-0.7c-4.4,0-8.8,0.2-13.1,0.7h-9.7c-6.3-4.8-13.1-8.9-20.5-12.4c-16.9-7.9-36-12-56.7-12H333h-54.9
			l-10.8,53.9L245,1301.8l-16,80.1h81.7h51.5c19.9,0,38.5-3.6,55.5-10.6c10,5,20.7,8.4,31.9,10.1l-0.1,0.5h3.5
			c4.6,0.6,9.4,0.9,14.2,0.9c4.9,0,9.7-0.3,14.4-0.9c0,0,28.3,0.9,32.8,0.9c4.6,0,156.2-0.9,156.2-0.9h24.6h1.2v0l14.9-3.6
			c6,0.8,29.6-0.3,35.6-1.1l31.1,4.7h25h40.9c4.6,0.6,30.8,0,38.8-1.7c7.2,1.7,36.3,1.9,42.8,0.6l219.1,1.1h59.4h25h30
			c10.7,9.5,23.3,16.8,37.5,21.7c13.3,4.6,27.5,6.9,42.4,6.9c37.1,0,61.7-14.3,75.7-26.3c19.5-16.7,32.4-40.2,38.4-69.8l14.6-73.3
			l16-80.1H1425.6z"/>
	</g>
	<g>
		<path class="st3" d="M860.6,1007l129.7,142.5c3.1,3.4,7.3,5.5,11.8,6.1c4.8,0.6,9.5,1.4,14,2.5c1.7,0.4,3.5,0.6,5.1,0.6
			c7.5,0,14.4-4.1,17.9-10.6c5-9.4,1.4-19.1-3-27.2l39.3-25.6l27.3,50.6c3.3,6.2,9.7,10,16.7,10h48.9c8.4,0,16.4,0.8,23.9,2.4
			c1.3,0.3,2.7,0.4,4,0.4c3.3,0,6.6-0.9,9.5-2.6c9.6-5.5,20.6-8.5,31.9-8.5c16.1,0,31.4,6,42.9,16.9c2.4,2.3,4.7,4.8,6.8,7.5
			c3.6,4.7,9.2,7.4,15.1,7.4c0.2,0,0.4,0,0.5,0c1.3,0,2.5-0.1,3.6-0.1h6.7h75.9c1.7,0.5,3.4,0.7,5.2,0.7h31.3h34.5l-11.5,57.4
			l-14.6,73.3c-5.1,25.3-15.9,45.2-32.1,59.1c-11.6,9.9-32,21.7-63.3,21.7c-12.7,0-24.9-2-36.2-5.9c-11.8-4.1-22.2-10.1-31.1-18
			c-3.5-3.1-7.9-4.8-12.6-4.8h-30h-25h-59.4H696.3c0,0,0,0-0.1,0c-2.2,0-224.2,0.9-229,0.9c-4,0-8-0.2-11.9-0.7
			c-0.5-0.1-0.9-0.1-1.4-0.1c-0.5-0.1-0.9-0.2-1.4-0.3c-9.2-1.4-18-4.2-26.2-8.3c-2.7-1.3-5.6-2-8.5-2c-2.5,0-4.9,0.5-7.3,1.4
			c-14.7,6.1-30.9,9.2-48.3,9.2h-51.5h-58.6l11.5-57.4l22.2-111.2l7.7-38.6H333h43.7c17.9,0,34.3,3.4,48.6,10.2
			c6.1,2.9,11.8,6.3,17.1,10.3c3.3,2.5,7.3,3.9,11.5,3.9h9.7c0.7,0,1.4,0,2.1-0.1c3.6-0.4,7.3-0.6,11-0.6c3.8,0,7.6,0.2,11.2,0.6
			c0.7,0.1,1.4,0.1,2.1,0.1h12.1h25h25.4c9.1,0,16.9-6.4,18.6-15.3l1.8-9.1h39.4h25.5h81.6h9.5c0.8,0,1.6-0.1,2.4-0.2
			c5.1-0.7,10.4-1,15.7-1c5.3,0,10.7,0.3,15.9,1c0.8,0.1,1.6,0.2,2.4,0.2h10.4c2.9,0,5.7-0.6,8.3-1.9c8.6-4.2,18-6.3,27.8-6.3
			c8.4,0,16.5,1.6,24.2,4.8c2.3,1,4.8,1.5,7.3,1.5c3.1,0,6.1-0.7,8.9-2.2c1-0.5,2-1.2,2.9-1.9h43.8c7.7,0,14.6-4.6,17.5-11.7
			c2.9-7.1,1.3-15.3-4.1-20.7l-55.9-56L860.6,1007 M845,961.6l-8.1,106.9l62,62.2h-54.8l-0.8,4.1c-9.9-4.1-20.5-6.3-31.5-6.3
			c-12.7,0-25,2.8-36,8.2h-10.4c-6-0.8-12.1-1.1-18.3-1.1c-6.2,0-12.2,0.4-18.1,1.1h-9.5h-81.6h-25.5h-54.9l-4.9,24.3h-25.4h-25H490
			c-4.3-0.5-8.8-0.7-13.3-0.7c-4.4,0-8.8,0.2-13.1,0.7h-9.7c-6.3-4.8-13.1-8.9-20.5-12.4c-16.9-7.9-36-12-56.7-12H333h-54.9
			l-10.8,53.9L245,1301.8l-16,80.1h81.7h51.5c19.9,0,38.5-3.6,55.5-10.6c10,5,20.7,8.4,31.9,10.1l-0.1,0.5h3.5
			c4.6,0.6,9.4,0.9,14.2,0.9c4.9,0,229-0.9,229-0.9h448.1h59.4h25h30c10.7,9.5,23.3,16.8,37.5,21.7c13.3,4.6,27.5,6.9,42.4,6.9
			c37.1,0,61.7-14.3,75.7-26.3c19.5-16.7,32.4-40.2,38.4-69.8l14.6-73.3l16-80.1h-57.7h-31.3l0.1-0.7h-81.2h-6.7
			c-1.4,0-2.8,0-4.1,0.1c-2.6-3.4-5.6-6.7-8.8-9.7c-15.1-14.3-35-22.1-56-22.1c-14.8,0-29,3.8-41.4,11c-8.8-1.9-18.1-2.9-27.9-2.9
			h-48.9l-37.1-68.8l-56.6,36.9l-36-24.9c-0.5-0.3-0.9-0.5-1.1-0.5c-4.6,0,42.3,60.2,32.6,60.2c-0.2,0-0.5,0-0.8-0.1
			c-5.2-1.2-10.6-2.2-16.1-2.8L845,961.6L845,961.6z M1483.2,1161.1L1483.2,1161.1L1483.2,1161.1z"/>
	</g>
	<g>
		<path class="st4" d="M337.5,1209.2h39.2c10,0,18.6,1.7,25.8,5.1c7.2,3.4,12.7,8.2,16.5,14.3c3.8,6.2,5.7,13.4,5.7,21.7
			c0,11.6-2.6,22-7.8,30.9c-5.2,9-12.5,15.9-21.9,20.8c-9.4,4.9-20.3,7.4-32.7,7.4h-44.8L337.5,1209.2z M362.7,1297
			c9.6,0,18-2,25.2-5.9c7.2-3.9,12.7-9.3,16.5-16.3c3.9-6.9,5.8-14.8,5.8-23.7c0-9.3-3-16.5-8.9-21.7c-5.9-5.2-14.6-7.8-26.1-7.8
			h-26.1l-15,75.3H362.7z"/>
		<path class="st4" d="M525.9,1297.4l-1.4,11.2c-2.9,1.1-6.3,1.7-10.2,1.7c-4.9,0-8.9-1.1-12-3.4c-3.2-2.2-5.1-5.3-5.9-9.2
			c-3.5,4.1-7.8,7.2-12.7,9.4c-4.9,2.1-10.4,3.2-16.5,3.2c-6.5,0-12.3-1.3-17.3-3.9c-5.1-2.6-9-6.4-11.9-11.4
			c-2.9-5-4.3-10.8-4.3-17.5c0-8.6,1.9-16.3,5.6-23.1c3.7-6.8,8.9-12.1,15.4-15.9c6.5-3.8,13.9-5.7,22-5.7c6.5,0,12.1,1.1,16.7,3.4
			c4.6,2.3,8.2,5.7,10.7,10.2l2.6-12.9h13.7l-10.5,52.7c-0.3,1.4-0.4,2.7-0.4,3.7c0,2.9,0.8,5,2.4,6.5c1.6,1.5,4,2.2,7,2.2
			C521.5,1298.7,523.8,1298.3,525.9,1297.4z M485.5,1294.2c4.5-2.7,8.1-6.5,10.6-11.4c2.5-4.9,3.8-10.4,3.8-16.6
			c0-6.8-2-12-5.9-15.8c-3.9-3.7-9.5-5.6-16.8-5.6c-5.6,0-10.7,1.4-15.2,4.1c-4.5,2.7-8,6.5-10.6,11.4c-2.6,4.9-3.9,10.4-3.9,16.6
			c0,6.7,2,11.9,5.9,15.7c4,3.8,9.5,5.7,16.7,5.7C475.9,1298.3,481,1296.9,485.5,1294.2z"/>
		<path class="st4" d="M576.2,1235.7c4.9-1.9,10.8-2.9,17.8-2.9l-2.6,13.3c-0.9-0.1-2.1-0.1-3.6-0.1c-15.8,0-25.3,8.5-28.6,25.5
			l-7.6,37.9h-13.7l15-75.9H566l-2.1,11.3C567.2,1240.7,571.3,1237.6,576.2,1235.7z"/>
		<path class="st4" d="M648.5,1256l36.2,53.4h-16l-30.5-45l-22.1,18.9l-5.2,26.1h-14.3l20-100.2H631l-11,55.4l64.2-55.4h18.6
			l-54,46.5L648.5,1256z"/>
		<path class="st4" d="M706.9,1307.2c-6.9-2.3-12.2-5.2-16-8.7l6.3-11.5c3.8,3.5,8.6,6.3,14.5,8.4c5.8,2.1,11.8,3.1,18,3.1
			c8.2,0,14.8-1.5,19.7-4.5c4.9-3,7.4-7.2,7.4-12.5c0-2.9-1-5.2-2.9-7.2c-1.9-1.9-4.2-3.4-7-4.6c-2.8-1.1-6.7-2.5-11.7-4
			c-6.4-1.9-11.6-3.7-15.5-5.4c-3.9-1.7-7.3-4.3-10.1-7.7c-2.8-3.4-4.2-7.9-4.2-13.4c0-6.3,1.8-11.8,5.3-16.5
			c3.5-4.7,8.4-8.3,14.7-10.8c6.3-2.5,13.5-3.8,21.6-3.8c6.2,0,12.1,0.7,17.7,2.2c5.6,1.5,10.4,3.6,14.5,6.2l-5.7,11.7
			c-3.7-2.7-7.9-4.7-12.5-6c-4.6-1.3-9.5-2-14.7-2c-8.2,0-14.7,1.6-19.6,4.8c-4.9,3.2-7.3,7.5-7.3,12.8c0,3,1,5.4,2.9,7.4
			c2,2,4.4,3.6,7.3,4.7c2.9,1.1,6.9,2.5,12,4c6.3,1.9,11.4,3.7,15.3,5.4c3.9,1.7,7.2,4.1,9.9,7.4c2.7,3.2,4.1,7.4,4.1,12.6
			c0,6.4-1.8,11.9-5.4,16.6c-3.6,4.7-8.6,8.3-15,10.8c-6.4,2.5-13.7,3.8-22.1,3.8C721,1310.6,713.8,1309.5,706.9,1307.2z"/>
		<path class="st4" d="M799.6,1233.6h13.7l-15,75.9h-13.7L799.6,1233.6z M804.3,1216.5c-1.6-1.6-2.4-3.6-2.4-5.9
			c0-2.7,0.9-4.9,2.8-6.8c1.9-1.9,4.2-2.8,7.1-2.8c2.5,0,4.6,0.8,6.2,2.4c1.7,1.6,2.5,3.5,2.5,5.7c0,3-0.9,5.3-2.8,7.2
			c-1.9,1.8-4.3,2.7-7.2,2.7C808,1219,805.9,1218.1,804.3,1216.5z"/>
		<path class="st4" d="M900.1,1290.1c0,2.8,0.8,4.9,2.4,6.4c1.6,1.5,3.9,2.2,6.9,2.2c2.6,0,4.9-0.4,7-1.3l-1.4,11.2
			c-2.9,1.1-6.3,1.7-10.2,1.7c-4.8,0-8.7-1.1-11.8-3.2c-3.1-2.1-5.2-5.2-6.2-9.1c-7.4,8.2-17,12.3-28.9,12.3
			c-6.5,0-12.3-1.3-17.3-3.9c-5.1-2.6-9-6.4-11.9-11.4c-2.9-5-4.3-10.8-4.3-17.5c0-8.6,1.9-16.3,5.6-23.1
			c3.7-6.8,8.9-12.1,15.4-15.9c6.5-3.8,13.9-5.7,22-5.7c6.5,0,12.1,1.1,16.7,3.4c4.6,2.3,8.2,5.7,10.7,10.2l8.7-43.2h13.7
			l-16.6,83.1C900.2,1287.7,900.1,1289,900.1,1290.1z M876.1,1294.2c4.5-2.7,8.1-6.5,10.6-11.4c2.5-4.9,3.8-10.4,3.8-16.6
			c0-6.8-2-12-5.9-15.8c-3.9-3.7-9.5-5.6-16.8-5.6c-5.6,0-10.7,1.4-15.2,4.1c-4.5,2.7-8,6.5-10.6,11.4c-2.6,4.9-3.9,10.4-3.9,16.6
			c0,6.7,2,11.9,5.9,15.7c4,3.8,9.5,5.7,16.7,5.7C866.5,1298.3,871.6,1296.9,876.1,1294.2z"/>
		<path class="st4" d="M963.2,1225.6c-5.2,3.5-7.8,8.1-7.8,14c0,4.2,1.5,7.4,4.5,9.7c3,2.2,7.3,3.4,12.8,3.4h25.8l-2.4,12.3h-27.5
			c-8.2,0-14.7,1.6-19.5,4.7c-4.8,3.1-7.2,7.5-7.2,13.2c0,5,2.2,8.8,6.6,11.5c4.4,2.7,10.9,4,19.6,4c7.1,0,13.7-0.9,19.9-2.7
			c6.2-1.8,11.3-4.3,15.3-7.4l4.7,11.2c-4.8,3.4-10.9,6.2-18.3,8.2c-7.4,2.1-15.2,3.1-23.3,3.1c-11.9,0-21.4-2.3-28.4-6.9
			c-7-4.6-10.5-11-10.5-19.3c0-6.6,2.1-12.3,6.2-17.1c4.2-4.8,9.7-8.2,16.7-10.1c-3-1.7-5.3-4.1-6.9-7.1c-1.6-3-2.4-6.4-2.4-10.2
			c0-6.4,1.8-12,5.5-16.8c3.7-4.8,8.9-8.5,15.5-11.1c6.7-2.6,14.4-3.9,23.2-3.9c6.7,0,12.9,0.7,18.5,2c5.7,1.3,10.6,3.3,14.7,5.9
			l-5,11.3c-8.1-4.6-17.8-6.9-29.1-6.9C975.5,1220.4,968.4,1222.1,963.2,1225.6z"/>
		<path class="st4" d="M1012.9,1309.5h71.6l-1.7,8.9h-71.6L1012.9,1309.5z"/>
		<path class="st4" d="M1191.9,1265.2c2.5,3.4,3.7,7.7,3.7,12.9c0,10.1-3.9,17.9-11.7,23.3c-7.8,5.4-18.4,8.1-31.9,8.1h-48.3
			l20-100.2h44.4c10.1,0,17.9,1.9,23.4,5.7c5.5,3.8,8.2,9.2,8.2,16.4c0,6.5-1.7,12-5.1,16.5c-3.4,4.5-7.9,7.9-13.4,10
			C1186,1259.3,1189.5,1261.8,1191.9,1265.2z M1174.1,1292.8c4.9-3.4,7.4-8.2,7.4-14.5c0-5-1.7-8.5-5.2-10.6
			c-3.5-2.1-8.7-3.2-15.7-3.2h-33.5l-6.6,33.4h32.6C1162.2,1297.9,1169.2,1296.2,1174.1,1292.8z M1135.8,1220.8l-6.4,32.1h29.4
			c8.1,0,14.5-1.6,19.3-4.9c4.7-3.3,7.1-8.1,7.1-14.4c0-4.3-1.7-7.5-5.1-9.6c-3.4-2.1-8.3-3.2-14.7-3.2H1135.8z"/>
		<path class="st4" d="M1225.4,1233.6h13.7l-15,75.9h-13.7L1225.4,1233.6z M1230.2,1216.5c-1.6-1.6-2.4-3.6-2.4-5.9
			c0-2.7,0.9-4.9,2.8-6.8c1.9-1.9,4.2-2.8,7.1-2.8c2.5,0,4.6,0.8,6.2,2.4c1.7,1.6,2.5,3.5,2.5,5.7c0,3-0.9,5.3-2.8,7.2
			c-1.9,1.8-4.3,2.7-7.2,2.7C1233.8,1219,1231.8,1218.1,1230.2,1216.5z"/>
		<path class="st4" d="M1288.7,1235.7c4.9-1.9,10.8-2.9,17.8-2.9l-2.6,13.3c-0.9-0.1-2.1-0.1-3.6-0.1c-15.8,0-25.3,8.5-28.6,25.5
			l-7.6,37.9h-13.7l15-75.9h13.2l-2.1,11.3C1279.8,1240.7,1283.9,1237.6,1288.7,1235.7z"/>
		<path class="st4" d="M1394.8,1233.6l-13.3,66.7c-2.7,13.4-7.5,23-14.4,28.9c-6.9,5.9-16.4,8.9-28.6,8.9c-6.8,0-13-1-18.6-2.9
			c-5.6-2-10.4-4.8-14.2-8.4l7.3-10.6c3.2,3.2,7,5.6,11.6,7.2c4.6,1.7,9.5,2.5,14.9,2.5c8.3,0,14.6-2,19-5.9
			c4.3-4,7.4-10.3,9.1-19.1l0.9-4.3c-6.8,6.5-15.6,9.7-26.5,9.7c-8.4,0-15-2.2-19.9-6.7c-4.9-4.4-7.3-10.7-7.3-18.8
			c0-2.7,0.3-5.6,0.9-8.7l7.7-38.5h13.7l-7.7,38.7c-0.5,2.6-0.7,4.7-0.7,6.3c0,5,1.5,8.8,4.4,11.5c2.9,2.7,7.2,4,13,4
			c7.4,0,13.4-2,18.3-6.1c4.8-4.1,8-10.1,9.7-18.1l7.2-36.2H1394.8z"/>
	</g>
	<g>
		<path class="st2" d="M840,271.3C840,271.3,840,271.3,840,271.3c0.5,0,0.9,0,1.3,0l0.8,0c2.1,0,4.2,0,6.4,0.1l0.3,0
			c84.6,2.3,164.2,36.6,224.3,96.4c62.9,62.6,97.5,145.9,97.5,234.6c0,9.2-0.4,18.5-1.2,27.7l58.8,211.3l61.3,197.4l-5.2,5.3
			c-27.3,28-59.7,49.4-96.1,63.4c-29,11.2-60.6,17.8-93.9,19.6c-6.6,0.4-12.9,0.5-19,0.5c-15.6,0-29.7-1-41.6-2.4
			c1.1,2.9,1.7,6,1.7,9.3c0,14.3-11.6,25.8-25.8,25.8c-13.8,0-25.1-10.9-25.8-24.6c-26.5,20.2-52.6,26.6-74.9,26.6
			c-9.5,0-18.2-1.1-26-2.8c-22.2-4.8-39.8-14.7-49.4-21.1c-9.4,6.4-26.2,16.3-47.8,21.1c-7.6,1.7-16.2,2.9-25.5,2.9c0,0,0,0,0,0
			c-23.5,0-51.6-7.4-80-31.7c0.2,1.3,0.3,2.6,0.3,3.9c0,14.3-11.6,25.8-25.8,25.8c-14.3,0-25.8-11.6-25.8-25.8c0-3,0.5-5.9,1.5-8.6
			c-10.4,1-22.3,1.7-35.2,1.7c-6.1,0-12.5-0.2-19-0.5c-33.3-1.8-64.9-8.4-93.9-19.6c-36.4-14-68.7-35.4-96.1-63.4l-5.2-5.3
			l77.1-248.2l44.6-160.5c-0.8-9.2-1.2-18.5-1.2-27.7c0-88.7,34.6-172,97.5-234.6c60-59.8,139.7-94,224.3-96.4l0.2,0
			c2.2-0.1,4.3-0.1,6.4-0.1l0.8,0c0.4,0,0.8,0,1.2,0c0.2,0,0.4,0,0.7,0l0.4,0l0.4,0c0.2,0,0.4,0,0.6,0c0,0,0,0,0.1,0
			c0.4,0,0.8,0,1.2,0l0.7,0l0.7,0c0.4,0,0.8,0,1.2,0c0.2,0,0.4,0,0.7,0l0.4,0l0.4,0C839.6,271.3,839.8,271.3,840,271.3
			 M1072.2,856.9C1072.2,856.9,1072.2,856.9,1072.2,856.9C1072.2,856.9,1072.2,856.9,1072.2,856.9
			C1072.2,856.9,1072.2,856.9,1072.2,856.9L1072.2,856.9C1072.2,856.9,1072.2,856.9,1072.2,856.9 M840,241.3c-0.3,0-0.6,0-0.9,0
			l-0.1,0l-0.1,0c-0.3,0-0.6,0-0.9,0l-0.1,0l-0.1,0c-0.6,0-1.1,0-1.7,0l-0.1,0l-0.1,0c-0.6,0-1.2,0-1.7,0l-0.1,0H834h-0.1
			c-0.3,0-0.6,0-0.9,0l-0.1,0l-0.1,0c-0.3,0-0.6,0-0.9,0l-0.1,0l-0.1,0c-0.6,0-1.1,0-1.7,0l-0.7,0c-2.4,0-4.7,0.1-6.8,0.1l-0.1,0
			l-0.1,0l-0.1,0C730,244,643.2,281.3,577.7,346.5c-68.6,68.3-106.3,159.1-106.3,255.9c0,8.2,0.3,16.5,0.8,24.7l-43.1,155
			L352.2,1030l-5.3,17.1l12.5,12.8l5.2,5.3c30.4,31.1,66.3,54.8,106.7,70.4c31.9,12.3,66.6,19.6,103.1,21.6
			c6.8,0.4,13.8,0.6,20.7,0.6c2.9,0,5.8,0,8.7-0.1c8.8,19.3,28.3,32.8,50.8,32.8c14.7,0,28.1-5.7,38-15c6.3,3.3,12.7,6.1,19.2,8.5
			c15.6,5.7,31.9,8.5,48.4,8.5c10.6,0,21.4-1.2,32-3.6c16.2-3.6,30.2-9.5,41.5-15.5c11.6,6,26.1,11.9,42.8,15.5
			c10.8,2.3,21.7,3.5,32.4,3.5c22.6,0,44.3-5.1,64.7-15.1c9.7,8.2,22.3,13.1,35.9,13.1c22.6,0,42.2-13.5,50.9-32.9
			c4.9,0.2,9.9,0.3,14.8,0.3c6.9,0,13.8-0.2,20.7-0.6c36.5-2,71.2-9.2,103.1-21.6c40.5-15.6,76.4-39.3,106.7-70.4l5.2-5.3l12.5-12.8
			l-5.3-17.1l-61.2-197l-57.2-205.8c0.6-8.2,0.8-16.5,0.8-24.7c0-96.8-37.8-187.6-106.3-255.9c-65.5-65.2-152.3-102.5-244.5-105.1
			l-0.2,0l-0.1,0l-0.1,0c-2.1-0.1-4.4-0.1-6.8-0.1l-0.6,0c-0.6,0-1.1,0-1.7,0L840,241.3L840,241.3z"/>
	</g>
</g>
<g id="Capa_6">
	<g>
		<path class="st5" d="M1165.8,615c0-186.7-143.2-336.5-330-335.7c-185.8,0.8-330,151.7-330,337.6c0,67.4,14,129.8,48,182.4
			c29.6,45.8,45.6,99.4,45.4,154c0,0.6,0,1.1,0,1.7c0.7,65.4,53.6,117.7,119,117.7c65.7,0,119-53.3,119-119c0,65.7,53.3,119,119,119
			c65.4,0,118.3-52.3,119-117.7c0-0.6,0-1.1,0-1.7c-0.2-54.6,15.8-108.2,45.5-154.1C1154.6,746.4,1165.8,682.3,1165.8,615z"/>
	</g>
	<g>
		<g>
			<path class="st5" d="M1169.2,612.5c0-186.7-146.6-334-333.5-333.3c-185.8,0.8-330,154.3-330,340.1c0,67.4,14,127.2,48,179.8
				c29.6,45.8,45.6,99.4,45.4,154c0,0.6,0,1.1,0,1.7c0.7,65.4,53.6,117.7,119,117.7c65.7,0,119-53.3,119-119
				c0,65.7,53.3,119,119,119c65.4,0,118.3-52.3,119-117.7c0-0.6,0-1.1,0-1.7c-0.2-54.6,15.8-108.2,45.5-154.1
				C1154.6,746.4,1169.2,679.8,1169.2,612.5z"/>
		</g>
		<g>
			<path class="st6" d="M776,822.5l1.8-1.1c37-22.9,83.9-22.5,120.5,1.1h0"/>
		</g>
		<g>
			<path class="st6" d="M913.5,880.2c15.5,9.2,33.5,13,51.2,16.6c11.8,2.4,23.7,4.8,35.7,4.9"/>
		</g>
		<path class="st6" d="M1070.7,928.7"/>
		<path class="st6" d="M882.4,904.8"/>
		<ellipse class="st7" cx="979.8" cy="813.5" rx="15.9" ry="21.5"/>
		<path class="st6" d="M892.6,691.4c-9.1,2.2-17.6,6.7-24.6,12.9c-7.7,6.8-13.5,15.7-17.8,25c-3.2,7-5.7,14.6-5.2,22.3"/>
		<g>
			<path class="st6" d="M768.5,880.3c-15.5,9.2-33.5,13-51.2,16.6c-11.8,2.4-23.7,4.8-35.7,4.9"/>
		</g>
		<path class="st6" d="M611.3,928.7"/>
		<path class="st6" d="M799.6,904.9"/>
		<g>
			<path class="st6" d="M789.4,691.4c9.1,2.2,17.6,6.7,24.6,12.9c7.7,6.8,13.5,15.7,17.8,25c3.2,7,5.7,14.6,5.2,22.3"/>
		</g>
	</g>
	<path class="st8" d="M1056.8,1030.1c-11-80.7,12.7-165.6,63.9-228.9c-9.2,5.6-19.1,10-29.5,13c17.8-25.3,30.2-54.3,36.1-84.6
		c-8.3,3.4-17.5,4.7-26.5,3.7c13.6-11.5,23.6-27.2,28.2-44.4c-11.7,2.1-23.9,0.9-34.9-3.3c22.4-17.4,38.4-42.8,44.4-70.5
		c79.1,42.4-16.8,194-41.8,265.3S1089,961.7,1056.8,1030.1z"/>
	<path class="st8" d="M859.5,927.7c48.6,18.5,102.7,28.4,157.1,28.9c-6.2,6.7-13.7,12.7-22.1,17.7c19.1,7.5,42.8-4.3,52.1-19
		c9.3-14.7,9.6-31.7,15.7-47.3c7.6-19.6,19-34,41.4-45.3c-16.8,27.5-28.4,52.6-31.8,82.8c-2.5,21.9,2.3,44.3-4.4,65.7
		c-12.2,39.2-67,68-119.7,62.9"/>
	<path class="st9" d="M789.9,832.7c-5.2,13.5-8.4,28.2-17.6,39.5c-19.8,24.4-56.7,22.1-87.5,28.5c-10.1,2.1-21.8,7.5-22.5,17.8
		c-11.9-13.6-13.8-35.1-4.5-50.6c-10.3-1.2-19.5-8.8-22.6-18.7c5,1.6,11-0.7,13.7-5.2c-29.5-31.7-35.5-83-14-120.7
		c9.1-16,27-30.6,44.4-24.7c26.7,9,21.8,52.3,44.6,68.9c8,5.8,18.3,7.3,28.1,8.7c20.1,2.7,47.4,2.2,65.3,10.8
		C807.4,802,798.1,816.3,789.9,832.7z"/>
	<path class="st9" d="M893.5,832.7c5.2,13.5,8.4,28.2,17.6,39.5c19.8,24.4,56.7,22.1,87.5,28.5c10.1,2.1,21.8,7.5,22.5,17.8
		c11.9-13.6,13.8-35.1,4.5-50.6c10.3-1.2,19.5-8.8,22.6-18.7c-5,1.6-11-0.7-13.7-5.2c29.5-31.7,35.5-83,14-120.7
		c-9.1-16-27-30.6-44.4-24.7c-26.7,9-21.8,52.3-44.6,68.9c-8,5.8-18.3,7.3-28.1,8.7c-20.1,2.7-47.4,2.2-65.3,10.8
		C876,802,885.3,816.3,893.5,832.7z"/>
	<path class="st10" d="M1028,620.2c13.8-1.1,22-2.3,33.4,7.4c16.8,14.5,28.4,72.2,38.8,98.5c14.7-18.5,10.3-82.2-5.5-99.7
		c-5.6-6.2-14.1-11.2-21.4-15.2c-54.5-29.7-101.2-10.1-141.9,30.4c-14.6,14.5-66.1,55.3-71.9,75.1c13.9-26.3,15.4-5.8,97.4-74.3
		C971.7,630.2,1006.7,621.9,1028,620.2z"/>
	<path class="st8" d="M773.6,809.1c-13.7,1.1-23.8-12-30.9-23.6c1.4,20.7,19.9,39,41,40.4c-24.6,14.8-39.3,44-36.4,72.2
		c8.2-6.8,16.3-13.5,24.5-20.3c-12.1,13.5-19.8,30.8-21.7,48.7c27.2-19.2,59.2-31.9,92.5-36.7c-8-29-9-59.7-3-89.1
		c4.4-21.4,12.1-45.3,0.3-63.8c0.9,17.2-15.4,32.3-32.9,33.7c-17.5,1.4-34.5-8.6-44.8-22.4c-2.9,12.4,4.6,25.8,15.9,32.1
		c10.2,5.7,22.5,5.8,33.8,3.8C798.5,790.5,789.1,807.8,773.6,809.1z"/>
	<path class="st10" d="M628.5,632.7c-16.8,14.5-28.4,72.2-38.8,98.5c-14.7-18.5-10.3-82.2,5.5-99.7c5.6-6.2,14.1-11.2,21.4-15.2
		c54.5-29.7,101.2-10.1,141.9,30.4c14.6,14.5,66.1,55.3,71.9,75.1c-13.9-26.3-15.4-5.8-97.4-74.3c-14.7-12.3-49.7-20.6-71.1-22.3"/>
	<path class="st9" d="M1032.3,603.6c-16.7-8.8-35-14.7-53.6-17.6c-8.3-1.3-16.8-1.9-25-0.3c-10.6,2.1-20.1,8-28.9,14.3
		c-19.9,14.2-37.6,31.3-52.6,50.6c-17.4,22.4-32.9,45.4-33.7,73.4c-0.7-28.1-13-51-30.4-73.4c-15-19.3-32.8-36.4-52.6-50.6
		c-8.8-6.3-18.3-12.1-28.9-14.3c-8.2-1.7-16.7-1-25,0.3c-18.7,2.9-36.9,8.8-53.6,17.6c14.8,0.2,29.5,3.5,43,9.7
		c-7.9,0.1-15.8,0.2-23.8,0.3c39.8,4.9,75.5,24.1,104,51.9c12.6,12.3,69.9,56.1,68.8,71.4c0.1-1.6,0.2-3.2,0.2-4.7
		c0,1.6,0.1,3.2,0.2,4.7c-1.2-15.4,56.1-59.1,68.8-71.4c28.5-27.8,64.1-47,104-51.9c-7.9-0.1-15.8-0.2-23.8-0.3
		C1002.7,607.1,1017.5,603.8,1032.3,603.6z"/>
	<path class="st8" d="M908.4,809.1c13.7,1.1,23.8-12,30.9-23.6c-1.4,20.7-19.9,39-41,40.4c24.6,14.8,39.3,44,36.4,72.2
		c-8.2-6.8-16.3-13.5-24.5-20.3c12.1,13.5,19.8,30.8,21.7,48.7c-27.2-19.2-59.2-31.9-92.5-36.7c-26.3-33.7-28.1-63.5-15.2-87.2
		c10.5-19.3,6.1-47.3,17.9-65.8c-0.9,17.2,15.4,32.3,32.9,33.7s34.5-8.6,44.8-22.4c2.9,12.4-4.6,25.8-15.9,32.1
		c-10.2,5.7-22.5,5.8-33.8,3.8C883.6,790.5,893,807.8,908.4,809.1z"/>
	<path class="st8" d="M819.6,927.7c-48.6,18.5-102.7,28.4-157.1,28.9c6.2,6.7,13.7,12.7,22.1,17.7c-19.1,7.5-42.8-4.3-52.1-19
		c-9.3-14.7-9.6-31.7-15.7-47.3c-7.6-19.6-24.5-37-46.9-48.3c16.8,27.5,33.9,55.6,37.4,85.8c2.5,21.9-2.3,44.3,4.4,65.7
		c12.2,39.2,67,68,119.7,62.9"/>
	<path class="st9" d="M805.1,646.7c0,0,54.6,23.5,72.9,14.1s-24.9,55.3-24.9,55.3l-9,8.1l-4,7.9l-20.5-22.2L805.1,646.7z"/>
	<ellipse class="st11" cx="966" cy="831" rx="43.5" ry="64.7"/>
	<ellipse class="st12" cx="969" cy="832.1" rx="48.6" ry="65.1"/>
	<path class="st11" d="M853.1,784.3c7.6-0.2,15.2,0.5,22.6,1.3c7.4,0.8,14.5,1.8,20.9,1.7c6.4,0,11.7-1.1,17-3l1.1-0.4l1.2-0.4
		c0.8-0.3,1.6-0.6,2.3-0.8c1.5-0.6,3-1.1,4.4-1.7c2.8-1.2,5.4-2.4,7.6-3.7c2.3-1.3,4-2.7,5.7-4.3c1.7-1.6,3.3-3.4,4.8-5.3
		c0.8-1,1.5-2,2.2-3.1c0.7-1.1,1.4-2.2,2.1-3.4c1.4-2.3,2.7-4.8,3.9-7.4c1.3-2.6,2.5-5.4,3.7-8.1c1.2-2.8,2.4-5.5,3.4-8.3
		c1.1-2.8,2.1-5.6,3.1-8.4c1-2.8,1.9-5.7,2.8-8.5c0.4-1.4,0.9-2.8,1.3-4.3l0.6-2.2c0.2-0.8,0.4-1.6,0.7-2.4c1-3.3,2-6.8,3.5-10.5
		c1.5-3.7,3.2-7.5,5.9-11.5c1.3-2,2.9-4,4.7-6.1c1.9-2,4.1-4,6.7-5.8c2.6-1.8,5.6-3.4,8.8-4.5c3.2-1.2,6.5-1.9,9.9-2.2
		c3.4-0.4,6.9-0.3,10.3,0.3c3.3,0.5,6.5,1.4,9.3,2.6c2.8,1.1,5.3,2.5,7.5,3.9c2.2,1.4,4.1,3,5.9,4.5c3.5,3.2,6.2,6.4,8.5,9.8
		c2.4,3.3,4.2,6.7,5.9,10.2l0.3,0.6l0.3,0.6l0.5,1.2l1,2.4c0.6,1.6,1.3,3.2,1.9,4.8c2.4,6.4,4.4,12.9,6,19.5
		c1.5,6.6,2.6,13.2,3.2,19.9c0.5,6.7,0.7,13.3,0,19.9c-3.4-5.9-6.6-11.8-10-17.5c-3.4-5.7-6.8-11.3-10.3-16.7
		c-3.6-5.4-7.2-10.7-11-15.9l-2.9-3.9l-1.5-1.9l-0.7-1l-0.4-0.5l-0.3-0.4c-1.8-2.2-3.7-4.3-5.7-6.1c-2-1.8-4-3.4-5.9-4.6
		c-1-0.6-1.9-1.1-2.7-1.4c-0.8-0.3-1.6-0.5-2.1-0.6c-0.6-0.1-1-0.1-1.2,0c-0.3,0.1-0.4,0.2-0.6,0.3c-0.2,0.1-0.5,0.3-0.6,0.4
		l-0.4,0.5c-0.4,0.5-1.2,1.5-2.1,3.1c-0.9,1.6-1.8,3.8-2.6,6.2c-0.8,2.4-1.6,5.1-2.3,8l-0.6,2.2l-0.7,2.5c-0.5,1.7-0.9,3.4-1.4,5
		c-1,3.3-2.1,6.7-3.3,10c-1.2,3.3-2.6,6.5-4,9.8c-1.4,3.2-3,6.4-4.6,9.5c-0.8,1.6-1.7,3.1-2.5,4.7c-0.9,1.6-1.8,3.1-2.7,4.7
		c-1.9,3.1-4,6.3-6.4,9.5c-1.2,1.6-2.5,3.1-3.8,4.7c-1.4,1.5-2.8,3.1-4.3,4.6c-3.1,3-6.6,5.8-10.5,8.3c-1.9,1.3-4,2.4-6.1,3.5
		c-2.1,1-4.3,2-6.4,2.7c-2.1,0.8-4.3,1.5-6.4,2c-2.1,0.6-4.2,1-6.2,1.5c-2,0.4-4,0.7-6,1c-1,0.1-2,0.3-2.9,0.4l-1.4,0.2l-1.6,0.2
		c-2.2,0.3-4.5,0.4-6.7,0.4c-2.3,0-4.5,0-6.8-0.2c-4.5-0.4-8.8-1.3-12.8-2.5c-4-1.2-7.7-2.7-11.1-4.2c-3.4-1.6-6.7-3.3-9.9-5
		L853.1,784.3z"/>
	<g>
		<path class="st11" d="M778.1,865.1c0.8-1.3,1.6-2.5,2.5-3.7c0.4-0.6,0.9-1.2,1.4-1.8c0.5-0.6,1-1.1,1.4-1.7c0.5-0.5,1-1.1,1.5-1.6
			c0.5-0.5,1-1,1.6-1.5c0.5-0.5,1.1-1,1.6-1.5c0.5-0.5,1.1-1,1.7-1.4c4.5-3.8,9.5-7,14.9-9.5c10.7-5.1,22.7-7.7,34.6-7.7
			c12,0,23.9,2.5,34.6,7.6c5.4,2.5,10.4,5.7,14.9,9.5c1.1,1,2.2,1.9,3.3,3c1,1,2.1,2.1,3.1,3.2c1,1.1,1.9,2.3,2.8,3.4
			c0.9,1.2,1.7,2.4,2.5,3.8c-1.5-0.1-3-0.3-4.4-0.5c-1.4-0.2-2.8-0.3-4.2-0.6c-1.4-0.2-2.8-0.3-4.1-0.5c-1.4-0.2-2.7-0.3-4-0.5
			c-5.3-0.7-10.4-1.3-15.3-1.8c-10-1-19.5-1.5-29.1-1.5c-9.6,0-19.1,0.5-29.1,1.5c-5,0.5-10.1,1.1-15.3,1.8l-2,0.3
			c-0.7,0.1-1.3,0.2-2,0.3l-2,0.3c-0.7,0.1-1.4,0.2-2.1,0.3c-0.7,0.1-1.4,0.2-2.1,0.3l-2.1,0.3c-0.7,0.1-1.4,0.2-2.2,0.3
			C779.6,864.9,778.9,865,778.1,865.1z"/>
	</g>
	<g>
		<path class="st11" d="M778.1,827.2c0.8-1.3,1.6-2.5,2.5-3.7c0.4-0.6,0.9-1.2,1.4-1.8c0.5-0.6,1-1.1,1.4-1.7c0.5-0.5,1-1.1,1.5-1.6
			c0.5-0.5,1-1,1.6-1.5c0.5-0.5,1.1-1,1.6-1.5c0.5-0.5,1.1-1,1.7-1.4c4.5-3.8,9.5-7,14.9-9.5c10.7-5.1,22.7-7.7,34.6-7.7
			c12,0,23.9,2.5,34.6,7.6c5.4,2.5,10.4,5.7,14.9,9.5c1.1,1,2.2,1.9,3.3,3c1,1,2.1,2.1,3.1,3.2c1,1.1,1.9,2.3,2.8,3.4
			c0.9,1.2,1.7,2.4,2.5,3.8c-1.5-0.1-3-0.3-4.4-0.5c-1.4-0.2-2.8-0.3-4.2-0.6c-1.4-0.2-2.8-0.3-4.1-0.5c-1.4-0.2-2.7-0.3-4-0.5
			c-5.3-0.7-10.4-1.3-15.3-1.8c-10-1-19.5-1.5-29.1-1.5c-9.6,0-19.1,0.5-29.1,1.5c-5,0.5-10.1,1.1-15.3,1.8l-2,0.3
			c-0.7,0.1-1.3,0.2-2,0.3l-2,0.3c-0.7,0.1-1.4,0.2-2.1,0.3c-0.7,0.1-1.4,0.2-2.1,0.3l-2.1,0.3c-0.7,0.1-1.4,0.2-2.2,0.3
			C779.6,827,778.9,827.1,778.1,827.2z"/>
	</g>
	<g>
		<path class="st6" d="M915.7,884.9c15.5,9.2,33.5,13,51.2,16.6c11.8,2.4,23.7,4.8,35.7,4.9"/>
		<path class="st11" d="M915.7,884.9c1,0.1,2,0.3,2.9,0.5c0.9,0.2,1.9,0.3,2.9,0.5c0.9,0.2,1.9,0.4,2.8,0.5c0.5,0.1,0.9,0.2,1.4,0.3
			c0.5,0.1,0.9,0.2,1.4,0.2c3.7,0.7,7.3,1.3,10.9,2c3.6,0.6,7.2,1.3,10.8,1.9c3.6,0.7,7.2,1.4,10.8,2.1c3.6,0.8,7.3,1.6,10.9,2.6
			c3.6,1,7.2,2,10.7,3.2c3.5,1.1,7,2.3,10.6,3.6c1.8,0.6,3.6,1.3,5.4,1.9c1.8,0.7,3.6,1.3,5.5,2.1c-1.9,0.7-3.8,1.3-5.7,1.7
			c-1.9,0.4-3.9,0.7-5.9,0.9c-3.9,0.4-7.8,0.5-11.7,0.3c-3.9-0.2-7.7-0.6-11.4-1.1c-3.7-0.5-7.4-1.2-11.2-2
			c-7.4-1.6-14.9-3.8-22-7.2c-3.6-1.7-7-3.7-10.2-6c-0.8-0.6-1.6-1.2-2.4-1.8c-0.8-0.6-1.5-1.2-2.3-2c-0.7-0.7-1.5-1.4-2.1-2.1
			C916.9,886.5,916.3,885.7,915.7,884.9z"/>
	</g>
	<path class="st11" d="M1057,602.4c2.8,1.5,5.5,2.9,8.3,4.4c2.7,1.4,5.4,2.9,8.1,4.5c5.3,3.1,10.6,6.4,15.7,10.2
		c1.3,1,2.5,2,3.8,3.1l1,0.8l1,1l1,1c0.3,0.4,0.7,0.8,1,1.2l0.5,0.6c0.1,0.1,0.2,0.2,0.2,0.3l0.2,0.3l0.8,1c0.5,0.7,1,1.4,1.5,2.1
		c0.9,1.4,1.9,2.9,2.7,4.4c0.9,1.5,1.6,3.1,2.3,4.6c0.4,0.8,0.7,1.6,1,2.4l0.5,1.2l0.4,1.2c0.6,1.6,1.1,3.3,1.5,5
		c0.2,0.8,0.4,1.7,0.6,2.5c0.2,0.8,0.4,1.7,0.5,2.5c0.3,1.7,0.5,3.4,0.7,5c0.1,1.7,0.3,3.3,0.4,5c0.1,3.3,0.1,6.6-0.1,9.8
		c-0.4,6.4-1.3,12.5-2.3,18.5c-1,6-2.1,11.8-3.1,17.7c-0.5,3-1,5.9-1.4,8.9c-0.5,3-0.8,6.1-1.2,9.2c-1.5-2.8-2.8-5.7-3.7-8.8
		l-0.4-1.1c-0.1-0.4-0.2-0.8-0.3-1.1l-0.7-2.3c-0.4-1.5-0.8-3.1-1.1-4.6c-1.3-6.2-1.9-12.5-2.2-18.7c-0.3-6.1-0.4-12.1-0.7-17.9
		c-0.1-2.9-0.3-5.7-0.5-8.4c-0.2-2.7-0.6-16.4-1.1-19c-0.5-2.6-1,5.8-1.8,3.4l-0.3-0.9l-0.3-0.9c-0.2-0.6-0.4-1.2-0.6-1.9
		c-0.5-1.2-0.9-2.4-1.4-3.6c-0.5-1.2-1.1-2.4-1.6-3.6c-0.3-0.6-0.6-1.2-0.9-1.8l-0.5-0.9l-0.1-0.2c0-0.1-0.1-0.1-0.1-0.2l-0.2-0.3
		c-0.1-0.2-0.2-0.4-0.3-0.6l-0.5-0.7l-0.5-0.8l-0.6-0.8c-0.8-1.1-1.7-2.2-2.6-3.3c-3.8-4.4-7.8-9-11.7-13.8
		c-1.9-2.4-3.9-4.8-5.7-7.4C1060.1,608,1058.3,605.3,1057,602.4z"/>
	<path class="st6" d="M1072.8,933.3"/>
	<path class="st6" d="M884.5,909.5"/>
	<ellipse class="st7" cx="981.9" cy="818.2" rx="15.9" ry="21.5"/>
	<ellipse class="st11" cx="720.3" cy="831" rx="43.5" ry="64.7"/>
	<ellipse class="st12" cx="717.8" cy="832.1" rx="48.6" ry="65.1"/>
	<path class="st11" d="M825.5,784.3c-7-0.2-14.1,0.5-20.9,1.3c-6.8,0.8-13.4,1.8-19.3,1.7c-5.9,0-10.9-1.1-15.8-3l-1-0.4l-1.1-0.4
		c-0.7-0.3-1.5-0.6-2.2-0.8c-1.4-0.6-2.8-1.1-4.1-1.7c-2.6-1.2-5-2.4-7.1-3.7c-2.1-1.3-3.7-2.7-5.3-4.3c-1.6-1.6-3.1-3.4-4.5-5.3
		c-0.7-1-1.4-2-2-3.1c-0.7-1.1-1.3-2.2-2-3.4c-1.3-2.3-2.5-4.8-3.6-7.4c-1.2-2.6-2.4-5.4-3.4-8.1c-1.1-2.8-2.2-5.5-3.2-8.3
		c-1-2.8-2-5.6-2.9-8.4c-0.9-2.8-1.8-5.7-2.6-8.5c-0.4-1.4-0.8-2.8-1.2-4.3l-0.6-2.2c-0.2-0.8-0.4-1.6-0.6-2.4
		c-0.9-3.3-1.9-6.8-3.2-10.5c-1.4-3.7-3-7.5-5.4-11.5c-1.2-2-2.6-4-4.4-6.1c-1.7-2-3.8-4-6.2-5.8c-2.4-1.8-5.2-3.4-8.1-4.5
		c-3-1.2-6-1.9-9.1-2.2c-3.1-0.4-6.4-0.3-9.5,0.3c-3.1,0.5-6,1.4-8.6,2.6c-2.6,1.1-4.9,2.5-6.9,3.9c-2,1.4-3.8,3-5.4,4.5
		c-3.2,3.2-5.7,6.4-7.9,9.8c-2.2,3.3-3.9,6.7-5.5,10.2l-0.3,0.6l-0.2,0.6l-0.5,1.2l-0.9,2.4c-0.6,1.6-1.2,3.2-1.8,4.8
		c-2.2,6.4-4.1,12.9-5.5,19.5c-1.4,6.6-2.4,13.2-2.9,19.9c-0.5,6.7-0.6,13.3,0,19.9c3.2-5.9,6.1-11.8,9.3-17.5
		c3.1-5.7,6.3-11.3,9.6-16.7c3.3-5.4,6.7-10.7,10.2-15.9l2.7-3.9l1.3-1.9l0.7-1l0.3-0.5l0.3-0.4c1.6-2.2,3.4-4.3,5.2-6.1
		c1.8-1.8,3.7-3.4,5.5-4.6c0.9-0.6,1.7-1.1,2.5-1.4c0.8-0.3,1.4-0.5,2-0.6c0.5-0.1,0.9-0.1,1.1,0c0.3,0.1,0.4,0.2,0.6,0.3
		c0.2,0.1,0.4,0.3,0.5,0.4l0.4,0.5c0.4,0.5,1.1,1.5,1.9,3.1c0.8,1.6,1.6,3.8,2.4,6.2c0.7,2.4,1.5,5.1,2.1,8l0.5,2.2l0.6,2.5
		c0.4,1.7,0.9,3.4,1.3,5c0.9,3.3,2,6.7,3.1,10c1.1,3.3,2.4,6.5,3.7,9.8c1.3,3.2,2.7,6.4,4.2,9.5c0.8,1.6,1.5,3.1,2.3,4.7
		c0.8,1.6,1.6,3.1,2.5,4.7c1.8,3.1,3.7,6.3,5.9,9.5c1.1,1.6,2.3,3.1,3.5,4.7c1.3,1.5,2.6,3.1,4,4.6c2.8,3,6.1,5.8,9.7,8.3
		c1.8,1.3,3.7,2.4,5.7,3.5c2,1,3.9,2,5.9,2.7c2,0.8,3.9,1.5,5.9,2c1.9,0.6,3.9,1,5.8,1.5c1.9,0.4,3.7,0.7,5.6,1
		c0.9,0.1,1.8,0.3,2.7,0.4l1.3,0.2l1.5,0.2c2,0.3,4.1,0.4,6.2,0.4c2.1,0,4.2,0,6.3-0.2c4.1-0.4,8.2-1.3,11.9-2.5
		c3.7-1.2,7.1-2.7,10.3-4.2c3.2-1.6,6.2-3.3,9.1-5L825.5,784.3z"/>
	<g>
		<path class="st6" d="M770.6,884.9c-15.5,9.2-33.5,13-51.2,16.6c-11.8,2.4-23.7,4.8-35.7,4.9"/>
		<path class="st11" d="M770.6,884.9c-1,0.1-2,0.3-2.9,0.5c-0.9,0.2-1.9,0.3-2.9,0.5c-0.9,0.2-1.9,0.4-2.8,0.5
			c-0.5,0.1-0.9,0.2-1.4,0.3c-0.5,0.1-0.9,0.2-1.4,0.2c-3.7,0.7-7.3,1.3-10.9,2c-3.6,0.6-7.2,1.3-10.8,1.9
			c-3.6,0.7-7.2,1.4-10.8,2.1c-3.6,0.8-7.3,1.6-10.9,2.6c-3.6,1-7.2,2-10.7,3.2c-3.5,1.1-7,2.3-10.6,3.6c-1.8,0.6-3.6,1.3-5.4,1.9
			c-1.8,0.7-3.6,1.3-5.5,2.1c1.9,0.7,3.8,1.3,5.7,1.7c1.9,0.4,3.9,0.7,5.9,0.9c3.9,0.4,7.8,0.5,11.7,0.3c3.9-0.2,7.7-0.6,11.4-1.1
			c3.7-0.5,7.4-1.2,11.2-2c7.4-1.6,14.9-3.8,22-7.2c3.6-1.7,7-3.7,10.2-6c0.8-0.6,1.6-1.2,2.4-1.8c0.8-0.6,1.5-1.2,2.3-2
			c0.7-0.7,1.5-1.4,2.1-2.1C769.3,886.5,770,885.7,770.6,884.9z"/>
	</g>
	<path class="st11" d="M629.3,602.5c-2.8,1.5-5.5,2.9-8.3,4.4c-2.7,1.4-5.4,2.9-8.1,4.5c-5.3,3.1-10.6,6.4-15.7,10.2
		c-1.3,1-2.5,2-3.8,3.1l-1,0.8l-1,1l-1,1c-0.3,0.4-0.7,0.8-1,1.2l-0.5,0.6c-0.1,0.1-0.2,0.2-0.2,0.3l-0.2,0.3l-0.8,1
		c-0.5,0.7-1,1.4-1.5,2.1c-0.9,1.4-1.9,2.9-2.7,4.4c-0.9,1.5-1.6,3.1-2.3,4.6c-0.4,0.8-0.7,1.6-1,2.4l-0.5,1.2l-0.4,1.2
		c-0.6,1.6-1.1,3.3-1.5,5c-0.2,0.8-0.4,1.7-0.6,2.5c-0.2,0.8-0.4,1.7-0.5,2.5c-0.3,1.7-0.5,3.4-0.7,5c-0.1,1.7-0.3,3.3-0.4,5
		c-0.1,3.3-0.1,6.6,0.1,9.8c0.4,6.4,1.3,12.5,2.3,18.5c1,6,2.1,11.8,3.1,17.7c0.5,3,1,5.9,1.4,8.9c0.5,3,0.8,6.1,1.2,9.2
		c1.5-2.8,2.8-5.7,3.7-8.8l0.4-1.1c0.1-0.4,0.2-0.8,0.3-1.1l0.7-2.3c0.4-1.5,0.8-3.1,1.1-4.6c1.3-6.2,1.9-12.5,2.2-18.7
		c0.3-6.1,0.4-12.1,0.7-17.9c0.1-2.9,0.3-5.7,0.5-8.4c0.2-2.7,0.6-5.4,1.1-8c0.5-2.6,1-5.2,1.8-7.6l0.3-0.9l0.3-0.9
		c0.2-0.6,0.4-1.2,0.6-1.9c0.5-1.2,0.9-2.4,1.4-3.6c0.5-1.2,1.1-2.4,1.6-3.6c0.3-0.6,0.6-1.2,0.9-1.8l0.5-0.9l0.1-0.2
		c0-0.1,0.1-0.1,0.1-0.2l0.2-0.3c0.1-0.2,0.2-0.4,0.3-0.6l0.5-0.7l0.5-0.8l0.6-0.8c0.8-1.1,1.7-2.2,2.6-3.3c3.8-4.4,7.8-9,11.7-13.8
		c1.9-2.4,3.9-4.8,5.7-7.4C626.2,608,628,605.4,629.3,602.5z"/>
	<path class="st6" d="M613.5,933.4"/>
	<path class="st6" d="M801.7,909.5"/>
	<ellipse class="st7" cx="738.5" cy="818.2" rx="15.9" ry="21.5"/>
	<g>
		<path class="st11" d="M877.7,696.5c-3.6,0.7-7.2,1.9-10.6,3.6c-3.4,1.7-6.6,3.8-9.5,6.3c-2.9,2.5-5.5,5.3-7.7,8.3
			c-2.3,3-4.2,6.2-5.8,9.5c0,0,0,0,0,0.1c-1.1,2.4-4.4,2.4-5.5,0c0-0.1-0.1-0.2-0.1-0.2c-1.6-3.3-3.5-6.5-5.8-9.5
			c-2.2-3-4.8-5.8-7.7-8.3c-2.9-2.5-6.1-4.6-9.5-6.3c-3.4-1.7-7-2.9-10.6-3.6c-3.7-0.7-7.4-0.9-11.1-0.3c1.5,1.2,2.9,2.2,4.3,3.2
			c1.4,1.1,2.7,2.1,4,3.1c2.6,2.1,5,4.2,7.3,6.4c4.6,4.3,8.5,8.9,12.2,13.8c1.9,2.5,3.6,5.1,5.4,7.7c1.7,2.6,3.5,5.4,5.2,8.1
			c1.7,2.7,3.4,5.5,4.9,8.4c0.7,1.2,1.3,2.5,1.9,3.8c0,0.2,0.1,0.4,0.1,0.5c0.4,1.8,1,3.6,1.8,5.3c0.1-0.2,0.1-0.3,0.2-0.5
			c0,0.1,0.1,0.2,0.1,0.3c0.9-1.6,1.4-3.4,1.8-5.2c0.6-1.4,1.3-2.8,2-4.1c1.5-2.9,3.2-5.6,4.9-8.4c1.7-2.7,3.5-5.5,5.2-8.1
			c1.8-2.6,3.5-5.2,5.4-7.7c3.7-5,7.7-9.5,12.2-13.8c2.3-2.2,4.7-4.3,7.3-6.4c1.3-1.1,2.7-2.1,4-3.1c1.4-1,2.8-2.1,4.3-3.2
			C885,695.6,881.3,695.9,877.7,696.5z"/>
	</g>
	<g>
		<g>
			<path class="st13" d="M976.1,1077.5c0-152.3-125.1-173.8-138.8-175.6c-0.8-0.1-1.6-0.1-2.4,0c-13.6,1.9-137.1,23.1-138.7,172.7
				c0,0.4,0,0.8,0,1.1c0,0.6,0,1.2,0,1.8h0.1c0.5,10.8,5.4,21.5,14.4,29.8l13.2,12.1c20.3,18.7,54.1,18.6,74.4-0.1h0
				c19.8-18.2,52.5-18.8,73.1-1.3h0c22.9,19.5,60.4,19.5,83.3-0.1l5.7-4.9c11.3-9.7,16.5-22.8,15.7-35.6H976.1z"/>
			<path class="st11" d="M761,1146.5c-16.7,0-33.3-5.8-46-17.5l-13.2-12.1c-8-7.4-13.7-16.5-16.6-26.3H683v-13.1c0-0.4,0-0.9,0-1.3
				l0-0.5c0-0.4,0-0.9,0-1.3c0.4-36.3,7.8-68.5,21.9-95.7c11.7-22.4,27.9-41.3,48.3-56.4c35.4-26.2,72.7-32.4,79.9-33.4
				c2-0.3,4-0.3,6,0c7.2,1,45,7.3,80.6,33.9c20.5,15.3,36.8,34.6,48.3,57.3c14.1,27.6,21.2,60.4,21.2,97.4v13.1h-1
				c-2.4,12.3-9.1,23.7-19.4,32.5l-5.7,4.9c-13.4,11.5-31.3,17.8-50.1,17.8c0,0,0,0-0.1,0c-18.9,0-36.7-6.3-50.1-17.8
				c-15.4-13.1-40.9-12.7-55.7,0.9C794.4,1140.6,777.7,1146.5,761,1146.5z M709.2,1076.1l0,0.7c0.4,7.7,4,15.1,10.2,20.8l13.2,12.1
				c15.4,14.1,41.3,14.1,56.7-0.1c11.9-11,27.9-17.2,44.9-17.5c17-0.3,33.2,5.3,45.6,15.9c18,15.3,48.4,15.3,66.3,0l5.7-4.9
				c7.7-6.6,11.7-15.6,11.1-24.8l-0.9-14h0.7c-2.7-53-22.4-93.6-58.7-120.6c-29.6-22.1-60.6-27.8-67.9-28.9
				c-7.3,1.1-37.9,6.7-67.3,28.4c-38.9,28.8-58.9,72.9-59.6,131.3l0,0.2c0,0.3,0,0.5,0,0.8l0,0.1L709.2,1076.1z"/>
		</g>
		
			<ellipse transform="matrix(0.4241 -0.9056 0.9056 0.4241 -483.2502 1292.6864)" class="st11" cx="774.8" cy="1026.3" rx="53.2" ry="31.8"/>
		
			<ellipse transform="matrix(0.9056 -0.4241 0.4241 0.9056 -350.8574 476.2219)" class="st11" cx="894.4" cy="1026.3" rx="31.8" ry="53.2"/>
		<path class="st14" d="M701.3,1060.9c9.2,24.9,32.9,43.9,59.3,47.2c-4.8-4.4-8.6-10-10.8-16.2c31.6,3.3,55.3-7.3,85.3-17.8
			c1.7,15.6,2.1,23.2,1.6,38.9c-0.1,4.1-10.7-5.1-13.2-1.9c-2.1,2.7-31.2,19.2-34.4,20.5c-26.2,10.1-47.4,8.1-47.4,8.1
			C718.7,1122.6,704.6,1087.8,701.3,1060.9z"/>
		<path class="st15" d="M830.9,936.4c20.7-3.9,41.1,7.7,57.6,20.9c18.5,14.8,35.2,32.5,45.9,53.7c16.6,33,17.5,71.4,18,108.4
			c23.6-52.9,18.2-117.6-13.9-165.8c-8.2-12.3-18-23.6-30-32.3c-15-10.9-33.5-17.7-52.1-18.6C829.3,901.3,828.7,910.2,830.9,936.4z"
			/>
		<path class="st14" d="M971.6,1060.9c-9.2,24.9-32.9,43.9-59.3,47.2c4.8-4.4,8.6-10,10.8-16.2c-31.6,3.3-58.1-7.3-88.1-17.8
			c0.4,15.7,0.7,23.2,1.1,38.9c0.1,4.1,10.7-5.1,13.2-1.9c2.1,2.7,31.2,19.2,34.4,20.5c26.2,10.1,47.4,8.1,47.4,8.1
			C954.2,1122.6,968.3,1087.8,971.6,1060.9z"/>
		<path class="st11" d="M761,1146.5c-16.7,0-33.3-5.8-46-17.5l-13.2-12.1c-8-7.4-13.7-16.5-16.6-26.3H683v-13.1c0-0.4,0-0.9,0-1.3
			l0-0.5c0-0.4,0-0.9,0-1.3c0.4-36.3,7.8-68.5,21.9-95.7c11.7-22.4,27.9-41.3,48.3-56.4c35.4-26.2,72.7-32.4,79.9-33.4
			c2-0.3,4-0.3,6,0c7.2,1,45,7.3,80.6,33.9c20.5,15.3,36.8,34.6,48.3,57.3c14.1,27.6,21.2,60.4,21.2,97.4v13.1h-1
			c-2.4,12.3-9.1,23.7-19.4,32.5l-5.7,4.9c-13.4,11.5-31.3,17.8-50.1,17.8c0,0,0,0-0.1,0c-18.9,0-36.7-6.3-50.1-17.8
			c-15.4-13.1-40.9-12.7-55.7,0.9C794.4,1140.6,777.7,1146.5,761,1146.5z M709.2,1076.1l0,0.7c0.4,7.7,4,15.1,10.2,20.8l13.2,12.1
			c15.4,14.1,41.3,14.1,56.7-0.1c11.9-11,27.9-17.2,44.9-17.5c17-0.3,33.2,5.3,45.6,15.9c18,15.3,48.4,15.3,66.3,0l5.7-4.9
			c7.7-6.6,11.7-15.6,11.1-24.8l-0.9-14h0.7c-2.7-53-22.4-93.6-58.7-120.6c-29.6-22.1-60.6-27.8-67.9-28.9
			c-7.3,1.1-37.9,6.7-67.3,28.4c-38.9,28.8-58.9,72.9-59.6,131.3l0,0.2c0,0.3,0,0.5,0,0.8l0,0.1L709.2,1076.1z"/>
	</g>
	<path class="st16" d="M1082.8,560.7c-59-12.3-124,10.4-162.6,56.7c-18.2,21.9-39.3,41.6-64.8,50.8l0.3,5.2
		c-4.3-0.3-8.5-0.9-12.6-1.7c-4.1,0.9-8.3,1.5-12.6,1.7l0.1-5.3c-25.4-9.2-46.5-28.9-64.6-50.8c-38.6-46.4-103.6-69.1-162.6-56.7
		c38.2-30.2,87.7-45.7,136.3-42.6c-20.2-11.5-40.5-23.1-60.7-34.6c30.6-6.1,62.1-8.1,93.2-5.8c-13.2-20.6-30.3-38.7-50.2-53
		c21.4,4.7,41.3-12.1,54.7-29.5c23.1-30,46.7-61.9,55.8-98.1c0.6-2.3,4-2,4.1,0.4l0.5,9.8l0.2-11.7c0.1-3.4,4.8-4.2,6-1
		c12.9,36.2,44.1,72,66.2,100.6c13.4,17.3,33.3,34.2,54.7,29.5c-19.9,14.3-37,32.3-50.2,53c31.2-2.3,62.6-0.3,93.2,5.8
		c-20.2,11.5-40.5,23.1-60.7,34.6C995.1,515,1044.6,530.5,1082.8,560.7z"/>
	<path class="st11" d="M705.7,599c6-3.5,12.8-5.9,20-7.1c0.9-0.1,1.8-0.3,2.7-0.4l2.7-0.3c0.9-0.1,1.8-0.1,2.7-0.2
		c0.9,0,1.8-0.1,2.8-0.1c1.8,0,3.7,0,5.6,0.2c0.9,0.1,1.9,0.1,2.8,0.3l2.8,0.4c0.9,0.1,1.9,0.3,2.8,0.5c0.9,0.2,1.9,0.3,2.8,0.6
		c1.8,0.5,3.7,0.9,5.5,1.6c3.7,1.1,7.3,2.7,10.7,4.4c3.5,1.7,6.7,3.8,9.9,5.9c3.1,2.2,6.1,4.4,8.8,6.7c5.6,4.6,10.6,9.5,15.4,14
		c2.4,2.3,4.7,4.4,7,6.5l1.7,1.5l1.7,1.5l0.8,0.7l0.8,0.7c0.5,0.4,1.1,0.9,1.6,1.3c4.4,3.4,9.1,6.4,13.6,8.5c1.2,0.5,2.3,1,3.4,1.5
		c1.1,0.4,2.2,0.8,3.3,1.1c2.2,0.6,4.3,1,6.2,1.1c0.5,0,1,0,1.4,0.1c0.5,0,0.9,0,1.4,0c0.9,0,1.8-0.2,2.7-0.3
		c0.9-0.1,1.7-0.4,2.6-0.7c0.9-0.3,1.8-0.6,2.6-1.1c0.9-0.4,1.8-0.9,2.7-1.5c0.9-0.6,1.8-1.2,2.8-1.9c1.9-1.4,3.8-3.2,5.8-5.2
		c2-2,4-4.2,6.1-6.6l6.4-7.5c4.5-5.2,9.4-10.8,15.6-15.9c1.6-1.2,3.1-2.5,4.7-3.6c1.6-1.1,3.3-2.2,4.9-3.2c1.7-1,3.4-1.9,5.1-2.8
		c1.7-0.8,3.5-1.7,5.2-2.4c7-3,14.1-5,21.1-6.3c7-1.3,14-2,21-2.3c6.9-0.2,13.8-0.1,20.8,0.5c-6.2,3.1-12.5,5.8-18.7,8.6
		c-6.1,2.8-12.1,5.6-17.8,8.6c-5.6,3-10.9,6.3-15.7,9.9c-4.7,3.6-8.9,7.5-12.4,11.8c-3.5,4.3-6.8,9.3-10.4,14.8
		c-1.8,2.7-3.6,5.6-5.7,8.5c-2,2.9-4.2,5.9-6.7,8.9c-2.5,3-5.3,6-8.5,8.9c-3.2,2.9-7,5.6-11.2,7.9c-2.1,1.1-4.3,2.1-6.6,3
		c-1.2,0.4-2.3,0.8-3.5,1.1l-1.8,0.5c-0.6,0.2-1.2,0.3-1.8,0.4c-2.4,0.5-4.9,0.9-7.3,1c-2.4,0.2-4.8,0.2-7.2,0
		c-4.7-0.3-9.3-1.3-13.5-2.6c-4.2-1.3-8.2-3-11.9-4.9c-7.4-3.9-13.8-8.7-19.6-14c-0.7-0.7-1.4-1.3-2.1-2l-1-1l-1-1l-1.9-2l-1.8-2
		c-2.4-2.7-4.7-5.4-6.8-8.1c-4.3-5.4-8.3-10.5-12.2-15.3c-2-2.4-4-4.7-6-6.8c-1-1-2-2.2-3.1-3.1c-0.5-0.5-1-1-1.6-1.5l-1.6-1.4
		c-0.5-0.5-1.1-0.9-1.7-1.4c-0.6-0.4-1.1-0.9-1.7-1.4l-1.8-1.3c-0.6-0.4-1.2-0.8-1.8-1.2c-1.2-0.9-2.5-1.6-3.8-2.4
		c-0.6-0.4-1.3-0.7-2-1.1c-0.7-0.3-1.3-0.7-2-1l-2.1-1c-0.7-0.3-1.4-0.6-2.1-0.9c-1.4-0.6-2.9-1.1-4.3-1.7c-2.9-1-6-2-9.1-2.6
		c-1.6-0.4-3.2-0.6-4.8-1c-0.8-0.1-1.6-0.2-2.4-0.4l-1.2-0.2l-1.2-0.1l-2.5-0.3l-2.5-0.1l-1.3-0.1l-1.3,0
		C707.4,599,706.6,599,705.7,599z"/>
</g>
<g id="Capa_4">
	<path class="st17" d="M889.5,1242.8l145.7,202.4l102.5-316.7c0,0,7.7-147.3-110.4-159.6c0,0-172.7,15.9-187.2,33.3l5.2,175.8
		C845.3,1178,891.8,1169.6,889.5,1242.8z"/>
	<path class="st17" d="M905.9,1003.9c41.8-16,178.1-53,196,87.2c0.5,3.9-1.3,7.8-4.5,10c-17,11.4-76.4,42.4-192.7,15.5
		c0,0-32.3-6.6-13.7-95.2C892.7,1013.3,898.3,1006.8,905.9,1003.9z"/>
	<path class="st18" d="M1173.1,808.4c-17.7-41.7-43-79.2-75.3-111.3c-32.3-32.1-69.8-57.3-111.6-74.8
		c-43.3-18.2-89.2-27.3-136.6-27.1c-47.1,0.2-92.8,9.6-135.7,27.9c-41.5,17.7-78.7,42.9-110.7,75c-32,32.1-57,69.4-74.5,111
		c-18.1,43-27.3,88.7-27.3,135.8c0,67.5,19.3,133.1,55.8,189.6c28.5,44.2,43.5,95,43.3,147.1c0,0.6,0,1.2,0,1.9
		c0.4,35,14.2,67.7,38.9,92.2c24.7,24.5,57.6,37.9,92.6,37.9c35.1,0,68.2-13.7,93-38.5c10.9-10.9,19.6-23.3,26-36.8
		c6.4,13.5,15.1,26,26,36.8c24.8,24.8,57.9,38.5,93,38.5c35,0,67.8-13.5,92.6-37.9c24.7-24.5,38.6-57.2,38.9-92.2c0-0.6,0-1.2,0-1.9
		c-0.2-52,14.8-103,43.4-147.3c36.5-56.4,55.7-122,55.7-189.4C1200.7,897.5,1191.4,851.6,1173.1,808.4z M1124,1120.7
		c-31.3,48.4-47.7,104-47.5,160.9v1.5c-0.6,58.1-48.4,105.4-106.5,105.4c-58.7,0-106.5-47.8-106.5-106.5h-25
		c0,58.7-47.8,106.5-106.5,106.5c-58.1,0-105.9-47.3-106.5-105.4v-1.5c0.2-56.9-16.2-112.5-47.4-160.8
		c-33.9-52.4-51.8-113.3-51.8-176c0-178.3,145-323.9,323.3-324.6c87-0.4,168.8,33.2,230.5,94.6c61.6,61.4,95.6,143.1,95.6,230
		C1175.7,1007.5,1157.8,1068.3,1124,1120.7z"/>
	<g>
		<g>
			<path class="st19" d="M797,879.9c-4.6,6.2-9,7.1-9,7.1c-5.3,1.4-10.5,2.6-15.6,3.7v266c9-1.1,17.3-3.3,24.6-6V879.9z"/>
			<path class="st19" d="M747,895.3c-9.6,1.4-18.8,2.4-27.4,2.9v250.4c9.4,4.2,18.6,6.7,27.4,7.9V895.3z"/>
			<path class="st19" d="M947.7,1149.8V897.7c-7.8-0.7-16.1-1.7-24.6-3.1v261.9C931,1155.4,939.3,1153.2,947.7,1149.8z"/>
			<path class="st19" d="M1163.7,676.3H838.8h-7.4H506.5L395,1041.2c114.3,119.1,277.7,71.7,277.7,71.7c7.2,8,14.4,14.8,21.6,20.4
				V898.8c-55.9-1.4-87.4-20.1-99-28.7c-3.3-2.4-5-6.7-4.5-11c18-154.3,154.2-113.5,196.1-95.9c7.6,3.2,13.1,10.4,14.8,19.1
				c9.1,47.4,6.1,73.5,0.6,87.8h20v268c7-4.5,10.9-8,10.9-8s4.3,3.6,11.8,8.2V870h25.3v280.4c8.2,2.9,17.4,5.3,27.4,6.4V889.7
				c-3.6-0.8-7.2-1.7-10.8-2.6c0,0-32.3-7.2-13.7-104.8c1.7-8.7,7.2-15.9,14.8-19.1c41.8-17.6,178.1-58.4,196,95.9
				c0.5,4.3-1.3,8.5-4.5,11c-12.1,9-45.9,28.9-106.6,28.8v236.6c8.2-6,16.4-13.4,24.6-22.5c0,0,163.4,47.3,277.7-71.7L1163.7,676.3z
				"/>
		</g>
		<g class="st20">
			<path class="st21" d="M797,879.9c-4.6,6.2-9,7.1-9,7.1c-5.3,1.4-10.5,2.6-15.6,3.7v266c9-1.1,17.3-3.3,24.6-6V879.9z"/>
			<path class="st21" d="M747,895.3c-9.6,1.4-18.8,2.4-27.4,2.9v250.4c9.4,4.2,18.6,6.7,27.4,7.9V895.3z"/>
			<path class="st21" d="M947.7,1149.8V897.7c-7.8-0.7-16.1-1.7-24.6-3.1v261.9C931,1155.4,939.3,1153.2,947.7,1149.8z"/>
			<path class="st21" d="M1163.7,676.3H838.8h-7.4H506.5L395,1041.2c114.3,119.1,277.7,71.7,277.7,71.7c7.2,8,14.4,14.8,21.6,20.4
				V898.8c-55.9-1.4-87.4-20.1-99-28.7c-3.3-2.4-5-6.7-4.5-11c18-154.3,154.2-113.5,196.1-95.9c7.6,3.2,13.1,10.4,14.8,19.1
				c9.1,47.4,6.1,73.5,0.6,87.8h20v268c7-4.5,10.9-8,10.9-8s4.3,3.6,11.8,8.2V870h25.3v280.4c8.2,2.9,17.4,5.3,27.4,6.4V889.7
				c-3.6-0.8-7.2-1.7-10.8-2.6c0,0-32.3-7.2-13.7-104.8c1.7-8.7,7.2-15.9,14.8-19.1c41.8-17.6,178.1-58.4,196,95.9
				c0.5,4.3-1.3,8.5-4.5,11c-12.1,9-45.9,28.9-106.6,28.8v236.6c8.2-6,16.4-13.4,24.6-22.5c0,0,163.4,47.3,277.7-71.7L1163.7,676.3z
				"/>
		</g>
	</g>
	<path class="st22" d="M1163.7,676.3H838.8h-7.4H506.5L395,1035.5c114.3,117.2,277.7,70.6,277.7,70.6
		c79.8,87.6,160.5,16.8,160.5,16.8s84.5,70.8,164.3-16.8c0,0,163.4,46.6,277.7-70.6L1163.7,676.3z M788,883.7
		c-116.3,29.2-175.7-4.3-192.7-16.7c-3.3-2.4-5-6.6-4.5-10.8c18-151.9,154.2-111.7,196.1-94.4c7.6,3.1,13.1,10.2,14.8,18.8
		C820.3,876.6,788,883.7,788,883.7z M1079.6,867c-17,12.4-76.4,45.9-192.7,16.7c0,0-32.3-7.1-13.7-103.1c1.7-8.6,7.2-15.7,14.8-18.8
		c41.8-17.3,178.1-57.4,196,94.4C1084.6,860.4,1082.9,864.6,1079.6,867z"/>
	<path class="st23" d="M835.1,751.5h-2.6c-326.8-117-297.3,108.6-297.3,108.6L655.4,1148l34.6-86.3
		c-1.1-149.5,127.4-175.1,143.7-177.8c16.3,2.7,144.8,28.3,143.7,177.8l29.5,86.3l125.4-287.9
		C1132.3,860.1,1161.9,634.5,835.1,751.5z M788,887c-116.3,29.7-175.7-4.4-192.7-17c-3.3-2.4-5-6.7-4.5-11
		c18-154.3,154.2-113.5,196.1-95.9c7.6,3.2,13.1,10.4,14.8,19.1C820.3,879.8,788,887,788,887z M1079.6,870
		c-17,12.6-76.4,46.7-192.7,17c0,0-32.3-7.2-13.7-104.8c1.7-8.7,7.2-15.9,14.8-19.1c41.8-17.6,178.1-58.4,196,95.9
		C1084.6,863.4,1082.9,867.6,1079.6,870z"/>
	<linearGradient id="SVGID_1_" gradientUnits="userSpaceOnUse" x1="469.2957" y1="367.5575" x2="939.0099" y2="970.986">
		<stop  offset="0" style="stop-color:#454545"/>
		<stop  offset="2.102834e-02" style="stop-color:#424242"/>
		<stop  offset="0.1745" style="stop-color:#2F2F2F"/>
		<stop  offset="0.3527" style="stop-color:#212121"/>
		<stop  offset="0.5779" style="stop-color:#191919"/>
		<stop  offset="1" style="stop-color:#171717"/>
	</linearGradient>
	<path class="st24" d="M1276.9,1041.2l-114.2-410.5c0.8-9.4,1.2-18.8,1.2-28.3c0-87-33.9-168.7-95.6-230
		c-59.1-58.9-136.9-92.2-219.9-94.5c-0.1,0-0.1,0-0.2,0c-2.1-0.1-4.2-0.1-6.3-0.1c-0.7,0-1.3,0-2,0c-0.4,0-0.7,0-1.1,0
		c-0.4,0-0.7,0-1.1,0c-0.7,0-1.3,0-2,0c0,0,0,0,0,0s0,0,0,0c-0.7,0-1.3,0-2,0c-0.4,0-0.7,0-1.1,0c-0.4,0-0.7,0-1.1,0
		c-0.7,0-1.3,0-2,0c-2.1,0-4.2,0-6.3,0.1c-0.1,0-0.1,0-0.2,0c-83,2.3-160.8,35.6-219.9,94.5c-61.6,61.4-95.6,143.1-95.6,230
		c0,9.5,0.4,18.9,1.2,28.3L395,1041.2l204.6-310L835,756.6v0.2l0.9-0.1l0.9,0.1v-0.2l235.4-25.3L1276.9,1041.2z"/>
	<linearGradient id="SVGID_2_" gradientUnits="userSpaceOnUse" x1="804.0853" y1="514.9374" x2="867.8226" y2="514.9374">
		<stop  offset="0" style="stop-color:#454545"/>
		<stop  offset="0.3578" style="stop-color:#2E2E2E"/>
		<stop  offset="0.7248" style="stop-color:#1D1D1D"/>
		<stop  offset="1" style="stop-color:#171717"/>
	</linearGradient>
	<rect x="804.1" y="277.8" class="st25" width="63.7" height="474.2"/>
	<path class="st26" d="M582.4,419.9c0,0,104.9-20.3,129.8,58.4c0,0,74.1-149.4,278.5-73.1l50.1-44.4
		C1040.8,360.8,799.6,186.8,582.4,419.9z"/>
	<radialGradient id="SVGID_3_" cx="835.954" cy="659.507" r="418.8784" gradientUnits="userSpaceOnUse">
		<stop  offset="0" style="stop-color:#454545"/>
		<stop  offset="0.4221" style="stop-color:#434343"/>
		<stop  offset="0.6473" style="stop-color:#3B3B3B"/>
		<stop  offset="0.8255" style="stop-color:#2D2D2D"/>
		<stop  offset="0.979" style="stop-color:#1A1A1A"/>
		<stop  offset="1" style="stop-color:#171717"/>
	</radialGradient>
	<path class="st27" d="M1276.9,1041.2l-114.2-410.5c0.8-9.4,1.2-18.8,1.2-28.3c0-87-33.9-168.7-95.6-230
		c-59.1-58.9-136.9-92.2-219.9-94.5c-0.1,0-0.1,0-0.2,0c-2.1-0.1-4.2-0.1-6.3-0.1c-0.7,0-1.3,0-2,0c-0.4,0-0.7,0-1.1,0
		c-0.4,0-0.7,0-1.1,0c-0.7,0-1.3,0-2,0c0,0,0,0,0,0s0,0,0,0c-0.7,0-1.3,0-2,0c-0.4,0-0.7,0-1.1,0c-0.4,0-0.7,0-1.1,0
		c-0.7,0-1.3,0-2,0c-2.1,0-4.2,0-6.3,0.1c-0.1,0-0.1,0-0.2,0c-83,2.3-160.8,35.6-219.9,94.5c-61.6,61.4-95.6,143.1-95.6,230
		c0,9.5,0.4,18.9,1.2,28.3L395,1041.2l204.6-310L835,756.6v0.2l0.9-0.1l0.9,0.1v-0.2l235.4-25.3L1276.9,1041.2z"/>
	<radialGradient id="SVGID_4_" cx="1009.5165" cy="1134.5577" r="25.8093" gradientUnits="userSpaceOnUse">
		<stop  offset="0" style="stop-color:#454545"/>
		<stop  offset="0.4221" style="stop-color:#434343"/>
		<stop  offset="0.6473" style="stop-color:#3B3B3B"/>
		<stop  offset="0.8255" style="stop-color:#2D2D2D"/>
		<stop  offset="0.979" style="stop-color:#1A1A1A"/>
		<stop  offset="1" style="stop-color:#171717"/>
	</radialGradient>
	<circle class="st28" cx="1009.5" cy="1134.6" r="25.8"/>
	<radialGradient id="SVGID_5_" cx="654.5897" cy="1134.5577" r="25.8093" gradientUnits="userSpaceOnUse">
		<stop  offset="0" style="stop-color:#454545"/>
		<stop  offset="0.4221" style="stop-color:#434343"/>
		<stop  offset="0.6473" style="stop-color:#3B3B3B"/>
		<stop  offset="0.8255" style="stop-color:#2D2D2D"/>
		<stop  offset="0.979" style="stop-color:#1A1A1A"/>
		<stop  offset="1" style="stop-color:#171717"/>
	</radialGradient>
	<circle class="st29" cx="654.6" cy="1134.6" r="25.8"/>
</g>
</svg>
